<mxfile host="Electron" agent="Mozilla/5.0 (X11; Linux x86_64) AppleWebKit/537.36 (KHTML, like Gecko) draw.io/24.7.17 Chrome/128.0.6613.36 Electron/32.0.1 Safari/537.36" version="24.7.17">
  <diagram name="Page-1" id="edf60f1a-56cd-e834-aa8a-f176f3a09ee4">
    <mxGraphModel dx="1109" dy="661" grid="1" gridSize="10" guides="1" tooltips="1" connect="1" arrows="1" fold="1" page="1" pageScale="1" pageWidth="1100" pageHeight="850" background="none" math="0" shadow="0">
      <root>
        <mxCell id="0" />
        <mxCell id="1" parent="0" />
        <mxCell id="6lgEgZpsfUuPPcyMo3IH-9" style="edgeStyle=orthogonalEdgeStyle;rounded=0;orthogonalLoop=1;jettySize=auto;html=1;exitX=0.5;exitY=1;exitDx=0;exitDy=0;entryX=0.5;entryY=0;entryDx=0;entryDy=0;" edge="1" parent="1" source="60e70716793133e9-12" target="9WczK5n8fnEgmtZYeZMz-4">
          <mxGeometry relative="1" as="geometry" />
        </mxCell>
        <mxCell id="60e70716793133e9-12" value="&lt;b&gt;initialisation le générateur de nombre aléatoire&lt;/b&gt;" style="whiteSpace=wrap;html=1;rounded=0;shadow=1;labelBackgroundColor=none;strokeWidth=1;fontFamily=Verdana;fontSize=8;align=center;spacing=6;" parent="1" vertex="1">
          <mxGeometry x="262.5" y="120" width="135" height="30" as="geometry" />
        </mxCell>
        <mxCell id="6lgEgZpsfUuPPcyMo3IH-8" style="edgeStyle=orthogonalEdgeStyle;rounded=0;orthogonalLoop=1;jettySize=auto;html=1;exitX=0.5;exitY=1;exitDx=0;exitDy=0;exitPerimeter=0;entryX=0.5;entryY=0;entryDx=0;entryDy=0;" edge="1" parent="1" source="9WczK5n8fnEgmtZYeZMz-2" target="60e70716793133e9-12">
          <mxGeometry relative="1" as="geometry" />
        </mxCell>
        <mxCell id="9WczK5n8fnEgmtZYeZMz-2" value="&lt;font style=&quot;font-size: 12px;&quot;&gt;Début function RandomWord()&lt;/font&gt;" style="strokeWidth=1;html=1;shape=mxgraph.flowchart.terminator;whiteSpace=wrap;rounded=0;shadow=1;labelBackgroundColor=none;fontFamily=Verdana;fontSize=8;align=center;" parent="1" vertex="1">
          <mxGeometry x="270" y="30" width="120" height="70" as="geometry" />
        </mxCell>
        <mxCell id="6lgEgZpsfUuPPcyMo3IH-10" style="edgeStyle=orthogonalEdgeStyle;rounded=0;orthogonalLoop=1;jettySize=auto;html=1;exitX=0.5;exitY=1;exitDx=0;exitDy=0;entryX=0.5;entryY=0;entryDx=0;entryDy=0;" edge="1" parent="1" source="9WczK5n8fnEgmtZYeZMz-4" target="6lgEgZpsfUuPPcyMo3IH-3">
          <mxGeometry relative="1" as="geometry" />
        </mxCell>
        <mxCell id="9WczK5n8fnEgmtZYeZMz-4" value="&lt;b&gt;selectionner un mot aléatoire dans le tableau &quot;TabMots&quot;&lt;/b&gt;" style="whiteSpace=wrap;html=1;rounded=0;shadow=1;labelBackgroundColor=none;strokeWidth=1;fontFamily=Verdana;fontSize=8;align=center;spacing=6;" parent="1" vertex="1">
          <mxGeometry x="271.25" y="170" width="112.5" height="30" as="geometry" />
        </mxCell>
        <mxCell id="6lgEgZpsfUuPPcyMo3IH-1" value="&lt;b&gt;Lancement du jeu&amp;nbsp;&lt;/b&gt;" style="whiteSpace=wrap;html=1;rounded=0;shadow=1;labelBackgroundColor=none;strokeWidth=1;fontFamily=Verdana;fontSize=8;align=center;spacing=6;" vertex="1" parent="1">
          <mxGeometry x="285" y="460" width="85" height="30" as="geometry" />
        </mxCell>
        <mxCell id="6lgEgZpsfUuPPcyMo3IH-12" style="edgeStyle=orthogonalEdgeStyle;rounded=0;orthogonalLoop=1;jettySize=auto;html=1;exitX=0.5;exitY=1;exitDx=0;exitDy=0;entryX=0.5;entryY=0;entryDx=0;entryDy=0;" edge="1" parent="1" source="6lgEgZpsfUuPPcyMo3IH-2" target="6lgEgZpsfUuPPcyMo3IH-4">
          <mxGeometry relative="1" as="geometry" />
        </mxCell>
        <mxCell id="6lgEgZpsfUuPPcyMo3IH-2" value="&lt;b&gt;Initialisation de deux tableaux&lt;/b&gt;&lt;div&gt;&lt;b&gt;MotAdeviner [ t o t o ]&lt;/b&gt;&lt;/div&gt;&lt;div&gt;&lt;b&gt;&amp;nbsp; MotInconnu [ _ _ _ _ ]&amp;nbsp;&amp;nbsp;&lt;/b&gt;&lt;/div&gt;" style="whiteSpace=wrap;html=1;rounded=0;shadow=1;labelBackgroundColor=none;strokeWidth=1;fontFamily=Verdana;fontSize=8;align=center;spacing=6;" vertex="1" parent="1">
          <mxGeometry x="262.5" y="280" width="130" height="40" as="geometry" />
        </mxCell>
        <mxCell id="6lgEgZpsfUuPPcyMo3IH-11" style="edgeStyle=orthogonalEdgeStyle;rounded=0;orthogonalLoop=1;jettySize=auto;html=1;exitX=0.5;exitY=1;exitDx=0;exitDy=0;entryX=0.5;entryY=0;entryDx=0;entryDy=0;" edge="1" parent="1" source="6lgEgZpsfUuPPcyMo3IH-3" target="6lgEgZpsfUuPPcyMo3IH-2">
          <mxGeometry relative="1" as="geometry" />
        </mxCell>
        <mxCell id="6lgEgZpsfUuPPcyMo3IH-3" value="&lt;b&gt;Affecter le mot selectionné a la variable &quot;Mot&quot;&amp;nbsp;&amp;nbsp;&lt;/b&gt;" style="whiteSpace=wrap;html=1;rounded=0;shadow=1;labelBackgroundColor=none;strokeWidth=1;fontFamily=Verdana;fontSize=8;align=center;spacing=6;" vertex="1" parent="1">
          <mxGeometry x="245" y="220" width="165" height="40" as="geometry" />
        </mxCell>
        <mxCell id="6lgEgZpsfUuPPcyMo3IH-4" value="&lt;b&gt;Réinitialiser le générateur de nombres aléatoires pour révéler une lettre.&lt;/b&gt;" style="whiteSpace=wrap;html=1;rounded=0;shadow=1;labelBackgroundColor=none;strokeWidth=1;fontFamily=Verdana;fontSize=8;align=center;spacing=6;" vertex="1" parent="1">
          <mxGeometry x="262.5" y="340" width="130" height="50" as="geometry" />
        </mxCell>
        <mxCell id="6lgEgZpsfUuPPcyMo3IH-14" style="edgeStyle=orthogonalEdgeStyle;rounded=0;orthogonalLoop=1;jettySize=auto;html=1;exitX=0.5;exitY=1;exitDx=0;exitDy=0;entryX=0.5;entryY=0;entryDx=0;entryDy=0;" edge="1" parent="1" source="6lgEgZpsfUuPPcyMo3IH-5" target="6lgEgZpsfUuPPcyMo3IH-1">
          <mxGeometry relative="1" as="geometry" />
        </mxCell>
        <mxCell id="6lgEgZpsfUuPPcyMo3IH-5" value="&lt;b&gt;Révéler une lettre dans MotInconu [ _ _ t _ ]&lt;/b&gt;" style="whiteSpace=wrap;html=1;rounded=0;shadow=1;labelBackgroundColor=none;strokeWidth=1;fontFamily=Verdana;fontSize=8;align=center;spacing=6;" vertex="1" parent="1">
          <mxGeometry x="245" y="410" width="175" height="30" as="geometry" />
        </mxCell>
        <mxCell id="6lgEgZpsfUuPPcyMo3IH-7" value="&lt;span style=&quot;font-size: 12px;&quot;&gt;FIN&lt;/span&gt;" style="strokeWidth=1;html=1;shape=mxgraph.flowchart.terminator;whiteSpace=wrap;rounded=0;shadow=1;labelBackgroundColor=none;fontFamily=Verdana;fontSize=8;align=center;" vertex="1" parent="1">
          <mxGeometry x="292.5" y="510" width="70" height="40" as="geometry" />
        </mxCell>
        <mxCell id="6lgEgZpsfUuPPcyMo3IH-15" style="edgeStyle=orthogonalEdgeStyle;rounded=0;orthogonalLoop=1;jettySize=auto;html=1;exitX=0.5;exitY=1;exitDx=0;exitDy=0;entryX=0.47;entryY=0;entryDx=0;entryDy=0;entryPerimeter=0;" edge="1" parent="1" source="6lgEgZpsfUuPPcyMo3IH-4" target="6lgEgZpsfUuPPcyMo3IH-5">
          <mxGeometry relative="1" as="geometry" />
        </mxCell>
        <mxCell id="6lgEgZpsfUuPPcyMo3IH-16" style="edgeStyle=orthogonalEdgeStyle;rounded=0;orthogonalLoop=1;jettySize=auto;html=1;exitX=0.5;exitY=1;exitDx=0;exitDy=0;entryX=0.5;entryY=0;entryDx=0;entryDy=0;entryPerimeter=0;" edge="1" parent="1" source="6lgEgZpsfUuPPcyMo3IH-1" target="6lgEgZpsfUuPPcyMo3IH-7">
          <mxGeometry relative="1" as="geometry" />
        </mxCell>
      </root>
    </mxGraphModel>
  </diagram>
</mxfile>
